<svg xmlns="http://www.w3.org/2000/svg" viewBox="0 0 58.18 63.92"><defs><style>.cls-1{fill:#ca136b;stroke:#ca136b;stroke-miterlimit:10;stroke-width:4px;}</style></defs><title>Favicon</title><g id="Layer_2" data-name="Layer 2"><g id="Layer_1-2" data-name="Layer 1"><path class="cls-1" d="M56.18,15.16v8.89H51.56V15.79c0-3.45-.78-5.85-2.35-7.18s-4.3-2-8.22-2H18.59c-4.2,0-7.23.94-9.1,2.84s-2.8,4.93-2.8,9.13V47.36q0,5.88,2,7.84t7.84,2H51.56V37.56H23.91V32.94H56.18v29H51.56v-.07H15.86Q2,61.85,2,48V18Q2,10.48,6.23,6.23T18,2H41.62q7.07,0,10.82,3.36T56.18,15.16Z"/></g></g></svg>