<svg xmlns="http://www.w3.org/2000/svg" viewBox="0 0 762.45 117.13"><title>GearGrid</title><g id="Layer_2" data-name="Layer 2"><g id="Layer_1-2" data-name="Layer 1"><path d="M105.91,25.72V43.1h-9V27q0-10.12-4.58-14T76.22,9H32.43Q20.11,9,14.64,14.57T9.17,32.43V88.67Q9.17,100.16,13,104t15.33,3.83H96.88V69.51h-54v-9h63.08v56.65h-9V117H27.09Q0,117,0,89.9V31.2Q0,16.56,8.28,8.28T31.2,0H77.45Q91.26,0,98.59,6.57T105.91,25.72Z"/><path d="M114.12,99.48V57.2q0-9.72,6.16-15.47T136.7,36h51.45q10.4,0,16.56,5.68t6.16,15.53V69q0,8.61-5.41,13.54t-14.57,4.93h-67.6V98.52q0,5.61,2.26,7.46c1.5,1.23,4.22,1.85,8.14,1.85h59.66q8.34,0,8.35-6.3V92h9.17v11.63q0,4.94-4.66,9.17A16.6,16.6,0,0,1,194.58,117H133q-8.61,0-13.75-4.51T114.12,99.48Zm9.17-42.56V78.27h67.87a10.41,10.41,0,0,0,7.73-2.81,10.23,10.23,0,0,0,2.81-7.59v-11q0-5.74-3.49-8.82T188.42,45h-52q-6.3,0-9.72,3.08T123.29,56.92Z"/><path d="M244.53,35.85h46.79q12,0,18.2,7.53a25.05,25.05,0,0,1,6.3,17V117h-9.17v-3.42A25.47,25.47,0,0,1,293.1,117H239.05q-20,0-20-18.47V83.88q0-8.62,5-13.27t14-4.65H296a21.16,21.16,0,0,1,10.67,2.73v-7.8Q306.65,45,290.78,45h-45q-8.89,0-12.73,3T229.2,59.11v3.56l-9-.68V57.61q0-10.55,6.64-16.15T244.53,35.85Zm-5.2,72h54q6.15,0,9.71-3.22t3.56-9v-10a9.72,9.72,0,0,0-10.54-10.54H238.64a10.26,10.26,0,0,0-7.59,2.81,10.45,10.45,0,0,0-2.81,7.73v12q0,5.61,2.6,7.87C232.57,107.07,235.4,107.83,239.33,107.83Z"/><path d="M353.58,36.26h45.16q10.39,0,15.19,4.38t4.79,14.09V82.24h-9.17V54.46c0-3.56-.78-6-2.33-7.25s-4.29-1.92-8.21-1.92h-45.7q-9,0-14.5,5.89-5.62,6-5.61,12.86V117H324l.13-80.73h9v7.8A28.74,28.74,0,0,1,353.58,36.26Z"/><path d="M532.84,25.72V43.1h-9V27q0-10.12-4.59-14T503.15,9H459.36Q447,9,441.57,14.57T436.1,32.43V88.67q0,11.49,3.83,15.33t15.32,3.83h68.56V69.51h-54v-9h63.08v56.65h-9V117H454q-27.09,0-27.09-27.09V31.2q0-14.64,8.28-22.92T458.13,0h46.25q13.82,0,21.14,6.57T532.84,25.72Z"/><path d="M570.61,36.26h45.15q10.4,0,15.19,4.38t4.79,14.09V82.24h-9.17V54.46c0-3.56-.77-6-2.32-7.25S620,45.29,616,45.29H570.33q-9,0-14.5,5.89T550.22,64V117h-9.17l.14-80.73h9v7.8A28.75,28.75,0,0,1,570.61,36.26Z"/><path d="M655.31,40a6.79,6.79,0,0,1-4.79,1.77A6.53,6.53,0,0,1,645.8,40,6.19,6.19,0,0,1,644,35.3,5,5,0,0,1,647.1,30a7.82,7.82,0,0,1,6.84,0,5.16,5.16,0,0,1,3.28,5.26A6.09,6.09,0,0,1,655.31,40Zm-9.17,77V45.16h9.17V117Z"/><path d="M753.28,40.5V21.21h9.17L762.18,117H753v-2.73A21.16,21.16,0,0,1,742.34,117h-57.2q-8.76,0-14.23-5.47t-5.48-14.23V58.84q0-9.86,6.3-16.15A22.09,22.09,0,0,1,688,36.26h51.45A23.05,23.05,0,0,1,753.28,40.5ZM753,97.43V58.57a12.67,12.67,0,0,0-13.27-13.28h-52a12.86,12.86,0,0,0-9.51,3.63,13,13,0,0,0-3.63,9.65V97.43c0,3.28.94,5.84,2.81,7.66a10.38,10.38,0,0,0,7.59,2.74h57.47q5.07,0,7.8-2.81A10.38,10.38,0,0,0,753,97.43Z"/></g></g></svg>